<?xml version="1.0" standalone="no"?>
<!DOCTYPE svg PUBLIC "-//W3C//DTD SVG 20010904//EN"
 "http://www.w3.org/TR/2001/REC-SVG-20010904/DTD/svg10.dtd">
<svg version="1.0" xmlns="http://www.w3.org/2000/svg"
 width="500.000000pt" height="500.000000pt" viewBox="0 0 500.000000 500.000000"
 preserveAspectRatio="xMidYMid meet">

<g transform="translate(0.000000,500.000000) scale(0.100000,-0.100000)"
fill="#000000" stroke="none">
<path d="M1746 3879 c-314 -9 -634 -33 -745 -55 -204 -42 -316 -129 -385 -299
-141 -348 -141 -1702 0 -2050 82 -201 217 -285 516 -319 541 -62 2205 -62
2733 0 221 25 314 61 408 156 74 75 110 145 143 277 55 227 85 754 66 1173
-29 656 -89 864 -281 987 -97 63 -225 89 -538 111 -391 27 -1300 36 -1917 19z
m563 -891 c274 -159 512 -296 679 -392 83 -49 152 -92 152 -96 0 -10 -1029
-602 -1038 -596 -5 3 -6 495 -2 1175 0 30 -4 32 209 -91z"/>
</g>
</svg>
